<?xml version="1.0" encoding="UTF-8"?>
<svg width="80px" height="80px" viewBox="0 0 80 80" version="1.1" xmlns="http://www.w3.org/2000/svg" xmlns:xlink="http://www.w3.org/1999/xlink">
    <!-- Generator: Sketch 47.1 (45422) - http://www.bohemiancoding.com/sketch -->
    <title>LogoNoWord</title>
    <desc>Created with Sketch.</desc>
    <defs>
        <linearGradient x1="0%" y1="0%" x2="100%" y2="100%" id="linearGradient-1">
            <stop stop-color="#FFE7E7" offset="0%"></stop>
            <stop stop-color="#FD1211" offset="100%"></stop>
        </linearGradient>
    </defs>
    <g id="Page-1" stroke="none" stroke-width="1" fill="none" fill-rule="evenodd">
        <g id="LogoNoWord" fill="url(#linearGradient-1)">
            <path d="M10,20 L70,20 L70,60 L10,60 L10,20 Z M20,30 C17.2385763,30 15,32.2385763 15,35 L15,45 C15,47.7614237 17.2385763,50 20,50 C22.7614237,50 25,47.7614237 25,45 L25,35 C25,32.2385763 22.7614237,30 20,30 Z M40,30 C37.2385763,30 35,32.2385763 35,35 L35,45 C35,47.7614237 37.2385763,50 40,50 C42.7614237,50 45,47.7614237 45,45 L45,35 C45,32.2385763 42.7614237,30 40,30 Z M60,30 C57.2385763,30 55,32.2385763 55,35 L55,45 C55,47.7614237 57.2385763,50 60,50 C62.7614237,50 65,47.7614237 65,45 L65,35 C65,32.2385763 62.7614237,30 60,30 Z M5,0 L5,0 C7.76142375,-5.07265313e-16 10,2.23857625 10,5 L10,60 C4.4771525,60 6.76353751e-16,55.5228475 0,50 L0,5 L0,5 C-3.38176876e-16,2.23857625 2.23857625,5.07265313e-16 5,0 L5,0 Z M70,20 C75.5228475,20 80,24.4771525 80,30 L80,75 L80,75 C80,77.7614237 77.7614237,80 75,80 L75,80 C72.2385763,80 70,77.7614237 70,75 L70,20 Z" id="Combined-Shape"></path>
        </g>
    </g>
</svg>